# xmcd
#
# Track frame offsets:
#	150
#	15170
#	27805
#	46323
#	64393
#	75873
#	94908
#	107960
#	119793
#	134665
#	148083
#	166510
#	185045
#	201180
#
# Disc length: 2876
#
# Revision: 1
# Processed by: cddbd v1.5.1PL0 Copyright (c) Steve Scherf et al.
# Submitted via: VisiTrax 2.9.5.180 - For more info visit www.synapsa.com
# Normalized: r0:DSETVAR1
#
DISCID=c10b3a0e
DTITLE=Various Artist - Mr. Music Country 06-94
DYEAR=1994
DGENRE=
TTITLE0=Darrell McCall - Set me down where country music plays
TTITLE1=Kenny Hess - Crazy things to do
TTITLE2=Johnny Paycheck - The old violin
TTITLE3=Tommy Cash - Johnn Cash - George Jones - Tom T Hall - Thoughts on the flag
TTITLE4=T M Harding - Lovers and trains
TTITLE5=Kieran Kane - Emmylou Harris - Find my way home
TTITLE6=Dwight Yoakam - Pocket of a clown
TTITLE7=Narvel Felts - (I can ) Wrap my arms around the world
TTITLE8=Diana Murrell - He two-stepped his way (into my heart)
TTITLE9=Franc Dycus - Hungry, horny and blue
TTITLE10=Don Edwards - Goin' back to Texas
TTITLE11=Mark O'Connor - Johnny Cash - Marty Stuart - Travis Tritt - Charlie Daniels - The devil comes back to Georgia
TTITLE12=Pam Tillis - Tennessee nights
TTITLE13=David Allan Coe - Standing too close to the flame
EXTD=
EXTT0=
EXTT1=
EXTT2=
EXTT3=
EXTT4=
EXTT5=
EXTT6=
EXTT7=
EXTT8=
EXTT9=
EXTT10=
EXTT11=
EXTT12=
EXTT13=
PLAYORDER=
